<mxfile host="Electron" agent="Mozilla/5.0 (Windows NT 10.0; Win64; x64) AppleWebKit/537.36 (KHTML, like Gecko) draw.io/24.7.8 Chrome/128.0.6613.36 Electron/32.0.1 Safari/537.36" version="24.7.8" pages="2">
  <diagram name="Page-1" id="qlHcNVXUwtMzA2M0lPUo">
    <mxGraphModel dx="1050" dy="621" grid="1" gridSize="10" guides="1" tooltips="1" connect="1" arrows="1" fold="1" page="1" pageScale="1" pageWidth="1100" pageHeight="850" math="0" shadow="0">
      <root>
        <mxCell id="0" />
        <mxCell id="1" parent="0" />
        <mxCell id="rspi4K_giUkwoIs5XBeX-9" style="edgeStyle=orthogonalEdgeStyle;rounded=0;orthogonalLoop=1;jettySize=auto;html=1;exitX=0.5;exitY=1;exitDx=0;exitDy=0;exitPerimeter=0;entryX=0.5;entryY=0;entryDx=0;entryDy=0;" parent="1" source="rspi4K_giUkwoIs5XBeX-4" target="rspi4K_giUkwoIs5XBeX-8" edge="1">
          <mxGeometry relative="1" as="geometry" />
        </mxCell>
        <mxCell id="rspi4K_giUkwoIs5XBeX-4" value="start" style="strokeWidth=2;html=1;shape=mxgraph.flowchart.terminator;whiteSpace=wrap;" parent="1" vertex="1">
          <mxGeometry x="360" y="40" width="120" height="40" as="geometry" />
        </mxCell>
        <mxCell id="rspi4K_giUkwoIs5XBeX-7" value="x&amp;nbsp; = initialValue&lt;div&gt;error = epsilon&lt;/div&gt;&lt;div&gt;error ?= 0.5&lt;/div&gt;&lt;div&gt;i = 0&lt;/div&gt;" style="rounded=1;whiteSpace=wrap;html=1;absoluteArcSize=1;arcSize=14;strokeWidth=2;" parent="1" vertex="1">
          <mxGeometry x="360" y="200" width="120" height="80" as="geometry" />
        </mxCell>
        <mxCell id="rspi4K_giUkwoIs5XBeX-10" style="edgeStyle=orthogonalEdgeStyle;rounded=0;orthogonalLoop=1;jettySize=auto;html=1;exitX=0.5;exitY=1;exitDx=0;exitDy=0;" parent="1" source="rspi4K_giUkwoIs5XBeX-8" target="rspi4K_giUkwoIs5XBeX-7" edge="1">
          <mxGeometry relative="1" as="geometry" />
        </mxCell>
        <mxCell id="rspi4K_giUkwoIs5XBeX-8" value="&amp;lt;- initial value&lt;div&gt;&amp;lt;- epsilon&lt;/div&gt;" style="shape=parallelogram;html=1;strokeWidth=2;perimeter=parallelogramPerimeter;whiteSpace=wrap;rounded=1;arcSize=12;size=0.23;" parent="1" vertex="1">
          <mxGeometry x="360" y="100" width="120" height="80" as="geometry" />
        </mxCell>
        <mxCell id="rspi4K_giUkwoIs5XBeX-15" style="edgeStyle=orthogonalEdgeStyle;rounded=0;orthogonalLoop=1;jettySize=auto;html=1;exitX=0;exitY=0.5;exitDx=0;exitDy=0;exitPerimeter=0;entryX=0.5;entryY=0;entryDx=0;entryDy=0;" parent="1" source="rspi4K_giUkwoIs5XBeX-12" target="rspi4K_giUkwoIs5XBeX-14" edge="1">
          <mxGeometry relative="1" as="geometry" />
        </mxCell>
        <mxCell id="p2M1dEwy1PT4JJS1pHRV-5" value="Yes" style="edgeLabel;html=1;align=center;verticalAlign=middle;resizable=0;points=[];" vertex="1" connectable="0" parent="rspi4K_giUkwoIs5XBeX-15">
          <mxGeometry x="-0.5289" y="1" relative="1" as="geometry">
            <mxPoint as="offset" />
          </mxGeometry>
        </mxCell>
        <mxCell id="agQnURrUR8drWCu4zX6V-3" style="edgeStyle=orthogonalEdgeStyle;rounded=0;orthogonalLoop=1;jettySize=auto;html=1;exitX=1;exitY=0.5;exitDx=0;exitDy=0;exitPerimeter=0;entryX=0.5;entryY=0;entryDx=0;entryDy=0;" edge="1" parent="1" source="rspi4K_giUkwoIs5XBeX-12" target="agQnURrUR8drWCu4zX6V-2">
          <mxGeometry relative="1" as="geometry" />
        </mxCell>
        <mxCell id="p2M1dEwy1PT4JJS1pHRV-6" value="No" style="edgeLabel;html=1;align=center;verticalAlign=middle;resizable=0;points=[];" vertex="1" connectable="0" parent="agQnURrUR8drWCu4zX6V-3">
          <mxGeometry x="-0.8027" y="-2" relative="1" as="geometry">
            <mxPoint as="offset" />
          </mxGeometry>
        </mxCell>
        <mxCell id="rspi4K_giUkwoIs5XBeX-12" value="i != 1000" style="strokeWidth=2;html=1;shape=mxgraph.flowchart.decision;whiteSpace=wrap;" parent="1" vertex="1">
          <mxGeometry x="360" y="300" width="120" height="100" as="geometry" />
        </mxCell>
        <mxCell id="rspi4K_giUkwoIs5XBeX-13" style="edgeStyle=orthogonalEdgeStyle;rounded=0;orthogonalLoop=1;jettySize=auto;html=1;exitX=0.5;exitY=1;exitDx=0;exitDy=0;entryX=0.5;entryY=0;entryDx=0;entryDy=0;entryPerimeter=0;" parent="1" source="rspi4K_giUkwoIs5XBeX-7" target="rspi4K_giUkwoIs5XBeX-12" edge="1">
          <mxGeometry relative="1" as="geometry" />
        </mxCell>
        <mxCell id="rspi4K_giUkwoIs5XBeX-14" value="x_prev = x&lt;div&gt;x = sqrt(-cos(x) + 2 + sin(x))&lt;/div&gt;&lt;div&gt;i++&lt;/div&gt;" style="rounded=1;whiteSpace=wrap;html=1;absoluteArcSize=1;arcSize=14;strokeWidth=2;" parent="1" vertex="1">
          <mxGeometry x="260" y="400" width="120" height="80" as="geometry" />
        </mxCell>
        <mxCell id="rspi4K_giUkwoIs5XBeX-21" style="edgeStyle=orthogonalEdgeStyle;rounded=0;orthogonalLoop=1;jettySize=auto;html=1;exitX=1;exitY=0.5;exitDx=0;exitDy=0;exitPerimeter=0;entryX=0;entryY=0.5;entryDx=0;entryDy=0;" parent="1" source="rspi4K_giUkwoIs5XBeX-16" target="rspi4K_giUkwoIs5XBeX-19" edge="1">
          <mxGeometry relative="1" as="geometry" />
        </mxCell>
        <mxCell id="p2M1dEwy1PT4JJS1pHRV-8" value="No" style="edgeLabel;html=1;align=center;verticalAlign=middle;resizable=0;points=[];" vertex="1" connectable="0" parent="rspi4K_giUkwoIs5XBeX-21">
          <mxGeometry x="-0.3018" y="-1" relative="1" as="geometry">
            <mxPoint as="offset" />
          </mxGeometry>
        </mxCell>
        <mxCell id="rspi4K_giUkwoIs5XBeX-16" value="10 *&amp;nbsp;&lt;div&gt;abs(x - x_prev) &amp;gt; error&lt;/div&gt;" style="strokeWidth=2;html=1;shape=mxgraph.flowchart.decision;whiteSpace=wrap;" parent="1" vertex="1">
          <mxGeometry x="260" y="520" width="120" height="80" as="geometry" />
        </mxCell>
        <mxCell id="rspi4K_giUkwoIs5XBeX-17" style="edgeStyle=orthogonalEdgeStyle;rounded=0;orthogonalLoop=1;jettySize=auto;html=1;exitX=0;exitY=0.5;exitDx=0;exitDy=0;exitPerimeter=0;entryX=0.5;entryY=0;entryDx=0;entryDy=0;entryPerimeter=0;" parent="1" source="rspi4K_giUkwoIs5XBeX-16" target="rspi4K_giUkwoIs5XBeX-12" edge="1">
          <mxGeometry relative="1" as="geometry">
            <Array as="points">
              <mxPoint x="240" y="560" />
              <mxPoint x="240" y="290" />
              <mxPoint x="420" y="290" />
            </Array>
          </mxGeometry>
        </mxCell>
        <mxCell id="p2M1dEwy1PT4JJS1pHRV-7" value="Yes" style="edgeLabel;html=1;align=center;verticalAlign=middle;resizable=0;points=[];" vertex="1" connectable="0" parent="rspi4K_giUkwoIs5XBeX-17">
          <mxGeometry x="-0.97" relative="1" as="geometry">
            <mxPoint x="-3" as="offset" />
          </mxGeometry>
        </mxCell>
        <mxCell id="rspi4K_giUkwoIs5XBeX-18" style="edgeStyle=orthogonalEdgeStyle;rounded=0;orthogonalLoop=1;jettySize=auto;html=1;exitX=0.5;exitY=1;exitDx=0;exitDy=0;entryX=0.5;entryY=0;entryDx=0;entryDy=0;entryPerimeter=0;" parent="1" source="rspi4K_giUkwoIs5XBeX-14" target="rspi4K_giUkwoIs5XBeX-16" edge="1">
          <mxGeometry relative="1" as="geometry" />
        </mxCell>
        <mxCell id="rspi4K_giUkwoIs5XBeX-19" value="-&amp;gt; x" style="shape=parallelogram;html=1;strokeWidth=2;perimeter=parallelogramPerimeter;whiteSpace=wrap;rounded=1;arcSize=12;size=0.23;" parent="1" vertex="1">
          <mxGeometry x="400" y="520" width="120" height="80" as="geometry" />
        </mxCell>
        <mxCell id="hCjLC0Hycs6VZEcCR9qL-2" value="end" style="strokeWidth=2;html=1;shape=mxgraph.flowchart.terminator;whiteSpace=wrap;" parent="1" vertex="1">
          <mxGeometry x="400" y="640" width="120" height="40" as="geometry" />
        </mxCell>
        <mxCell id="hCjLC0Hycs6VZEcCR9qL-3" style="edgeStyle=orthogonalEdgeStyle;rounded=0;orthogonalLoop=1;jettySize=auto;html=1;exitX=0.5;exitY=1;exitDx=0;exitDy=0;entryX=0.5;entryY=0;entryDx=0;entryDy=0;entryPerimeter=0;" parent="1" source="rspi4K_giUkwoIs5XBeX-19" target="hCjLC0Hycs6VZEcCR9qL-2" edge="1">
          <mxGeometry relative="1" as="geometry" />
        </mxCell>
        <mxCell id="agQnURrUR8drWCu4zX6V-2" value="-&amp;gt; null" style="shape=parallelogram;html=1;strokeWidth=2;perimeter=parallelogramPerimeter;whiteSpace=wrap;rounded=1;arcSize=12;size=0.23;" vertex="1" parent="1">
          <mxGeometry x="520" y="400" width="120" height="80" as="geometry" />
        </mxCell>
        <mxCell id="agQnURrUR8drWCu4zX6V-4" style="edgeStyle=orthogonalEdgeStyle;rounded=0;orthogonalLoop=1;jettySize=auto;html=1;exitX=0.5;exitY=1;exitDx=0;exitDy=0;entryX=0.5;entryY=0;entryDx=0;entryDy=0;entryPerimeter=0;" edge="1" parent="1" source="agQnURrUR8drWCu4zX6V-2" target="hCjLC0Hycs6VZEcCR9qL-2">
          <mxGeometry relative="1" as="geometry">
            <Array as="points">
              <mxPoint x="580" y="610" />
              <mxPoint x="460" y="610" />
            </Array>
          </mxGeometry>
        </mxCell>
      </root>
    </mxGraphModel>
  </diagram>
  <diagram id="xSfVHcWBSXzT4QebJSOT" name="Page-2">
    <mxGraphModel dx="1167" dy="690" grid="1" gridSize="10" guides="1" tooltips="1" connect="1" arrows="1" fold="1" page="1" pageScale="1" pageWidth="1100" pageHeight="850" math="0" shadow="0">
      <root>
        <mxCell id="0" />
        <mxCell id="1" parent="0" />
        <mxCell id="KCjWlv1J8HZT_TrUdC1N-3" style="edgeStyle=orthogonalEdgeStyle;rounded=0;orthogonalLoop=1;jettySize=auto;html=1;exitX=0.5;exitY=1;exitDx=0;exitDy=0;entryX=0.5;entryY=0;entryDx=0;entryDy=0;" edge="1" parent="1" source="KCjWlv1J8HZT_TrUdC1N-4" target="KCjWlv1J8HZT_TrUdC1N-8">
          <mxGeometry relative="1" as="geometry" />
        </mxCell>
        <mxCell id="KCjWlv1J8HZT_TrUdC1N-4" value="&amp;lt;- error&lt;div&gt;&amp;lt;- x0&lt;/div&gt;&lt;div&gt;&amp;lt;- x1&lt;/div&gt;" style="shape=parallelogram;html=1;strokeWidth=2;perimeter=parallelogramPerimeter;whiteSpace=wrap;rounded=1;arcSize=12;size=0.23;" vertex="1" parent="1">
          <mxGeometry x="160" y="100" width="120" height="80" as="geometry" />
        </mxCell>
        <mxCell id="KCjWlv1J8HZT_TrUdC1N-6" style="edgeStyle=orthogonalEdgeStyle;rounded=0;orthogonalLoop=1;jettySize=auto;html=1;exitX=0.5;exitY=1;exitDx=0;exitDy=0;exitPerimeter=0;entryX=0.5;entryY=0;entryDx=0;entryDy=0;" edge="1" parent="1" source="KCjWlv1J8HZT_TrUdC1N-7" target="KCjWlv1J8HZT_TrUdC1N-4">
          <mxGeometry relative="1" as="geometry" />
        </mxCell>
        <mxCell id="KCjWlv1J8HZT_TrUdC1N-7" value="start" style="strokeWidth=2;html=1;shape=mxgraph.flowchart.terminator;whiteSpace=wrap;" vertex="1" parent="1">
          <mxGeometry x="160" y="40" width="120" height="40" as="geometry" />
        </mxCell>
        <mxCell id="KCjWlv1J8HZT_TrUdC1N-8" value="x0 ?= 0&lt;div&gt;x1 ?= 1&lt;/div&gt;&lt;div&gt;xPrev = x0&lt;/div&gt;&lt;div&gt;xCurr = x1&lt;/div&gt;&lt;div&gt;i = 0&lt;/div&gt;" style="rounded=1;whiteSpace=wrap;html=1;absoluteArcSize=1;arcSize=14;strokeWidth=2;" vertex="1" parent="1">
          <mxGeometry x="160" y="200" width="120" height="80" as="geometry" />
        </mxCell>
        <mxCell id="_ElTuFDYv1TFeGy8VywL-2" style="edgeStyle=orthogonalEdgeStyle;rounded=0;orthogonalLoop=1;jettySize=auto;html=1;exitX=0;exitY=0.5;exitDx=0;exitDy=0;exitPerimeter=0;entryX=0.5;entryY=0;entryDx=0;entryDy=0;" edge="1" parent="1" source="KCjWlv1J8HZT_TrUdC1N-9" target="2Yeb0T7_Fq_toSoEZueL-11">
          <mxGeometry relative="1" as="geometry" />
        </mxCell>
        <mxCell id="_ElTuFDYv1TFeGy8VywL-4" value="Yes" style="edgeLabel;html=1;align=center;verticalAlign=middle;resizable=0;points=[];" vertex="1" connectable="0" parent="_ElTuFDYv1TFeGy8VywL-2">
          <mxGeometry x="-0.5739" relative="1" as="geometry">
            <mxPoint as="offset" />
          </mxGeometry>
        </mxCell>
        <mxCell id="_ElTuFDYv1TFeGy8VywL-13" style="edgeStyle=orthogonalEdgeStyle;rounded=0;orthogonalLoop=1;jettySize=auto;html=1;exitX=1;exitY=0.5;exitDx=0;exitDy=0;exitPerimeter=0;entryX=0.5;entryY=0;entryDx=0;entryDy=0;" edge="1" parent="1" source="KCjWlv1J8HZT_TrUdC1N-9" target="_ElTuFDYv1TFeGy8VywL-12">
          <mxGeometry relative="1" as="geometry" />
        </mxCell>
        <mxCell id="PW4t6B9jksy3KZ8uMAzg-8" value="No" style="edgeLabel;html=1;align=center;verticalAlign=middle;resizable=0;points=[];" vertex="1" connectable="0" parent="_ElTuFDYv1TFeGy8VywL-13">
          <mxGeometry x="-0.8333" y="-1" relative="1" as="geometry">
            <mxPoint x="-1" as="offset" />
          </mxGeometry>
        </mxCell>
        <mxCell id="KCjWlv1J8HZT_TrUdC1N-9" value="i != 1000" style="strokeWidth=2;html=1;shape=mxgraph.flowchart.decision;whiteSpace=wrap;" vertex="1" parent="1">
          <mxGeometry x="160" y="300" width="120" height="80" as="geometry" />
        </mxCell>
        <mxCell id="KCjWlv1J8HZT_TrUdC1N-10" style="edgeStyle=orthogonalEdgeStyle;rounded=0;orthogonalLoop=1;jettySize=auto;html=1;exitX=0.5;exitY=1;exitDx=0;exitDy=0;entryX=0.5;entryY=0;entryDx=0;entryDy=0;entryPerimeter=0;" edge="1" parent="1" source="KCjWlv1J8HZT_TrUdC1N-8" target="KCjWlv1J8HZT_TrUdC1N-9">
          <mxGeometry relative="1" as="geometry" />
        </mxCell>
        <mxCell id="2Yeb0T7_Fq_toSoEZueL-4" style="edgeStyle=orthogonalEdgeStyle;rounded=0;orthogonalLoop=1;jettySize=auto;html=1;exitX=0.5;exitY=1;exitDx=0;exitDy=0;exitPerimeter=0;entryX=0.5;entryY=0;entryDx=0;entryDy=0;" edge="1" parent="1" source="2Yeb0T7_Fq_toSoEZueL-1" target="2Yeb0T7_Fq_toSoEZueL-2">
          <mxGeometry relative="1" as="geometry" />
        </mxCell>
        <mxCell id="2Yeb0T7_Fq_toSoEZueL-1" value="f start" style="strokeWidth=2;html=1;shape=mxgraph.flowchart.terminator;whiteSpace=wrap;" vertex="1" parent="1">
          <mxGeometry x="480" y="40" width="120" height="40" as="geometry" />
        </mxCell>
        <mxCell id="2Yeb0T7_Fq_toSoEZueL-5" style="edgeStyle=orthogonalEdgeStyle;rounded=0;orthogonalLoop=1;jettySize=auto;html=1;exitX=0.5;exitY=1;exitDx=0;exitDy=0;entryX=0.5;entryY=0;entryDx=0;entryDy=0;" edge="1" parent="1" source="2Yeb0T7_Fq_toSoEZueL-2" target="2Yeb0T7_Fq_toSoEZueL-3">
          <mxGeometry relative="1" as="geometry" />
        </mxCell>
        <mxCell id="2Yeb0T7_Fq_toSoEZueL-2" value="&amp;lt;- x" style="shape=parallelogram;html=1;strokeWidth=2;perimeter=parallelogramPerimeter;whiteSpace=wrap;rounded=1;arcSize=12;size=0.23;" vertex="1" parent="1">
          <mxGeometry x="480" y="100" width="120" height="80" as="geometry" />
        </mxCell>
        <mxCell id="2Yeb0T7_Fq_toSoEZueL-8" style="edgeStyle=orthogonalEdgeStyle;rounded=0;orthogonalLoop=1;jettySize=auto;html=1;exitX=0.5;exitY=1;exitDx=0;exitDy=0;entryX=0.5;entryY=0;entryDx=0;entryDy=0;" edge="1" parent="1" source="2Yeb0T7_Fq_toSoEZueL-3" target="2Yeb0T7_Fq_toSoEZueL-6">
          <mxGeometry relative="1" as="geometry" />
        </mxCell>
        <mxCell id="2Yeb0T7_Fq_toSoEZueL-3" value="f =&amp;nbsp;(x**2 - sin(x)) / cos(x) - 2) + 1" style="rounded=1;whiteSpace=wrap;html=1;absoluteArcSize=1;arcSize=14;strokeWidth=2;" vertex="1" parent="1">
          <mxGeometry x="480" y="200" width="120" height="80" as="geometry" />
        </mxCell>
        <mxCell id="2Yeb0T7_Fq_toSoEZueL-6" value="-&amp;gt; f" style="shape=parallelogram;html=1;strokeWidth=2;perimeter=parallelogramPerimeter;whiteSpace=wrap;rounded=1;arcSize=12;size=0.23;" vertex="1" parent="1">
          <mxGeometry x="480" y="300" width="120" height="80" as="geometry" />
        </mxCell>
        <mxCell id="2Yeb0T7_Fq_toSoEZueL-7" value="f end" style="strokeWidth=2;html=1;shape=mxgraph.flowchart.terminator;whiteSpace=wrap;" vertex="1" parent="1">
          <mxGeometry x="480" y="400" width="120" height="40" as="geometry" />
        </mxCell>
        <mxCell id="2Yeb0T7_Fq_toSoEZueL-9" style="edgeStyle=orthogonalEdgeStyle;rounded=0;orthogonalLoop=1;jettySize=auto;html=1;exitX=0.5;exitY=1;exitDx=0;exitDy=0;entryX=0.5;entryY=0;entryDx=0;entryDy=0;entryPerimeter=0;" edge="1" parent="1" source="2Yeb0T7_Fq_toSoEZueL-6" target="2Yeb0T7_Fq_toSoEZueL-7">
          <mxGeometry relative="1" as="geometry" />
        </mxCell>
        <mxCell id="_ElTuFDYv1TFeGy8VywL-3" style="edgeStyle=orthogonalEdgeStyle;rounded=0;orthogonalLoop=1;jettySize=auto;html=1;exitX=0.5;exitY=1;exitDx=0;exitDy=0;entryX=0.5;entryY=0;entryDx=0;entryDy=0;" edge="1" parent="1" source="2Yeb0T7_Fq_toSoEZueL-11" target="_ElTuFDYv1TFeGy8VywL-1">
          <mxGeometry relative="1" as="geometry" />
        </mxCell>
        <mxCell id="2Yeb0T7_Fq_toSoEZueL-11" value="fCur = f(xCur)&lt;div&gt;fPrev = f(xPrev)&lt;/div&gt;&lt;div&gt;&lt;br&gt;&lt;/div&gt;" style="rounded=1;whiteSpace=wrap;html=1;absoluteArcSize=1;arcSize=14;strokeWidth=2;" vertex="1" parent="1">
          <mxGeometry x="40" y="385" width="120" height="80" as="geometry" />
        </mxCell>
        <mxCell id="_ElTuFDYv1TFeGy8VywL-1" value="xNext = xCur - (fCur*(xCur-xPrev)) / (fCur - fPrev)" style="rounded=1;whiteSpace=wrap;html=1;absoluteArcSize=1;arcSize=14;strokeWidth=2;" vertex="1" parent="1">
          <mxGeometry x="40" y="480" width="120" height="80" as="geometry" />
        </mxCell>
        <mxCell id="_ElTuFDYv1TFeGy8VywL-8" style="edgeStyle=orthogonalEdgeStyle;rounded=0;orthogonalLoop=1;jettySize=auto;html=1;exitX=1;exitY=0.5;exitDx=0;exitDy=0;exitPerimeter=0;entryX=0.5;entryY=0;entryDx=0;entryDy=0;" edge="1" parent="1" source="_ElTuFDYv1TFeGy8VywL-5" target="_ElTuFDYv1TFeGy8VywL-7">
          <mxGeometry relative="1" as="geometry" />
        </mxCell>
        <mxCell id="_ElTuFDYv1TFeGy8VywL-9" value="No" style="edgeLabel;html=1;align=center;verticalAlign=middle;resizable=0;points=[];" vertex="1" connectable="0" parent="_ElTuFDYv1TFeGy8VywL-8">
          <mxGeometry x="-0.8639" y="2" relative="1" as="geometry">
            <mxPoint as="offset" />
          </mxGeometry>
        </mxCell>
        <mxCell id="PW4t6B9jksy3KZ8uMAzg-5" style="edgeStyle=orthogonalEdgeStyle;rounded=0;orthogonalLoop=1;jettySize=auto;html=1;exitX=0;exitY=0.5;exitDx=0;exitDy=0;exitPerimeter=0;entryX=0.5;entryY=0;entryDx=0;entryDy=0;" edge="1" parent="1" source="_ElTuFDYv1TFeGy8VywL-5" target="PW4t6B9jksy3KZ8uMAzg-2">
          <mxGeometry relative="1" as="geometry" />
        </mxCell>
        <mxCell id="PW4t6B9jksy3KZ8uMAzg-9" value="Yes" style="edgeLabel;html=1;align=center;verticalAlign=middle;resizable=0;points=[];" vertex="1" connectable="0" parent="PW4t6B9jksy3KZ8uMAzg-5">
          <mxGeometry x="-0.6349" y="2" relative="1" as="geometry">
            <mxPoint x="1" as="offset" />
          </mxGeometry>
        </mxCell>
        <mxCell id="_ElTuFDYv1TFeGy8VywL-5" value="abs(xNext - xCur)&amp;nbsp;&lt;div&gt;&amp;lt; error&lt;/div&gt;" style="strokeWidth=2;html=1;shape=mxgraph.flowchart.decision;whiteSpace=wrap;" vertex="1" parent="1">
          <mxGeometry x="260" y="420" width="120" height="80" as="geometry" />
        </mxCell>
        <mxCell id="_ElTuFDYv1TFeGy8VywL-6" style="edgeStyle=orthogonalEdgeStyle;rounded=0;orthogonalLoop=1;jettySize=auto;html=1;exitX=0.5;exitY=1;exitDx=0;exitDy=0;entryX=0.5;entryY=0;entryDx=0;entryDy=0;entryPerimeter=0;" edge="1" parent="1" source="_ElTuFDYv1TFeGy8VywL-1" target="_ElTuFDYv1TFeGy8VywL-5">
          <mxGeometry relative="1" as="geometry">
            <Array as="points">
              <mxPoint x="120" y="560" />
              <mxPoint x="120" y="580" />
              <mxPoint x="170" y="580" />
              <mxPoint x="170" y="400" />
              <mxPoint x="320" y="400" />
            </Array>
          </mxGeometry>
        </mxCell>
        <mxCell id="_ElTuFDYv1TFeGy8VywL-10" style="edgeStyle=orthogonalEdgeStyle;rounded=0;orthogonalLoop=1;jettySize=auto;html=1;" edge="1" parent="1" source="_ElTuFDYv1TFeGy8VywL-7">
          <mxGeometry relative="1" as="geometry">
            <mxPoint x="220" y="302.6666259765625" as="targetPoint" />
            <Array as="points">
              <mxPoint x="400" y="620" />
              <mxPoint x="30" y="620" />
              <mxPoint x="30" y="303" />
            </Array>
          </mxGeometry>
        </mxCell>
        <mxCell id="_ElTuFDYv1TFeGy8VywL-7" value="&lt;div&gt;&amp;nbsp;xPrev = xCur&lt;/div&gt;&lt;div&gt;&lt;span style=&quot;background-color: initial;&quot;&gt;xCur = xNext&lt;/span&gt;&lt;/div&gt;&lt;div&gt;i++&lt;/div&gt;" style="rounded=1;whiteSpace=wrap;html=1;absoluteArcSize=1;arcSize=14;strokeWidth=2;" vertex="1" parent="1">
          <mxGeometry x="340" y="520" width="120" height="80" as="geometry" />
        </mxCell>
        <mxCell id="PW4t6B9jksy3KZ8uMAzg-7" style="edgeStyle=orthogonalEdgeStyle;rounded=0;orthogonalLoop=1;jettySize=auto;html=1;exitX=0.5;exitY=1;exitDx=0;exitDy=0;" edge="1" parent="1" source="_ElTuFDYv1TFeGy8VywL-12" target="PW4t6B9jksy3KZ8uMAzg-1">
          <mxGeometry relative="1" as="geometry">
            <Array as="points">
              <mxPoint x="400" y="440" />
              <mxPoint x="470" y="440" />
              <mxPoint x="470" y="650" />
              <mxPoint x="240" y="650" />
            </Array>
          </mxGeometry>
        </mxCell>
        <mxCell id="_ElTuFDYv1TFeGy8VywL-12" value="-&amp;gt; null" style="shape=parallelogram;html=1;strokeWidth=2;perimeter=parallelogramPerimeter;whiteSpace=wrap;rounded=1;arcSize=12;size=0.23;" vertex="1" parent="1">
          <mxGeometry x="340" y="320" width="120" height="80" as="geometry" />
        </mxCell>
        <mxCell id="PW4t6B9jksy3KZ8uMAzg-1" value="end" style="strokeWidth=2;html=1;shape=mxgraph.flowchart.terminator;whiteSpace=wrap;" vertex="1" parent="1">
          <mxGeometry x="180" y="680" width="120" height="40" as="geometry" />
        </mxCell>
        <mxCell id="PW4t6B9jksy3KZ8uMAzg-2" value="-&amp;gt; xNext" style="shape=parallelogram;html=1;strokeWidth=2;perimeter=parallelogramPerimeter;whiteSpace=wrap;rounded=1;arcSize=12;size=0.23;" vertex="1" parent="1">
          <mxGeometry x="180" y="510" width="120" height="80" as="geometry" />
        </mxCell>
        <mxCell id="PW4t6B9jksy3KZ8uMAzg-6" style="edgeStyle=orthogonalEdgeStyle;rounded=0;orthogonalLoop=1;jettySize=auto;html=1;exitX=0.5;exitY=1;exitDx=0;exitDy=0;entryX=0.5;entryY=0;entryDx=0;entryDy=0;entryPerimeter=0;" edge="1" parent="1" source="PW4t6B9jksy3KZ8uMAzg-2" target="PW4t6B9jksy3KZ8uMAzg-1">
          <mxGeometry relative="1" as="geometry" />
        </mxCell>
      </root>
    </mxGraphModel>
  </diagram>
</mxfile>
